<svg width="16" height="16" xmlns="http://www.w3.org/2000/svg">
 <g>
  <title>background</title>
  <rect x="-1" y="-1" width="18" height="18" id="canvas_background" fill="none"/>
 </g>

 <g>
  <title>Layer 1</title>
  <g stroke="null" id="svg_1">
   <g stroke="null" id="cloud-download">
    <path fill="#c6c6c6" stroke="null" d="m12.901728,6.67521c-0.463675,-2.252143 -2.450862,-3.974373 -4.901728,-3.974373c-1.920948,0 -3.576935,1.059831 -4.37181,2.64958c-2.053424,0.264957 -3.576935,1.920948 -3.576935,3.974373c0,2.185905 1.788468,3.974373 3.974373,3.974373l8.611139,0c1.854706,0 3.311979,-1.457268 3.311979,-3.311979c0,-1.72223 -1.39103,-3.179498 -3.047017,-3.311979l0,0.000005zm-1.589749,1.987186l-3.311979,3.311979l-3.311979,-3.311979l1.987186,0l0,-2.64958l2.64958,0l0,2.64958l1.987186,0l0.000005,0z" id="svg_2"/>
   </g>
  </g>
  <g id="svg_3"/>
  <g id="svg_4"/>
  <g id="svg_5"/>
  <g id="svg_6"/>
  <g id="svg_7"/>
  <g id="svg_8"/>
  <g id="svg_9"/>
  <g id="svg_10"/>
  <g id="svg_11"/>
  <g id="svg_12"/>
  <g id="svg_13"/>
  <g id="svg_14"/>
  <g id="svg_15"/>
  <g id="svg_16"/>
  <g id="svg_17"/>
 </g>
</svg>