<svg width="16" height="16" xmlns="http://www.w3.org/2000/svg">

 <g>
  <title>background</title>
  <rect fill="none" id="canvas_background" height="18" width="18" y="-1" x="-1"/>
 </g>
 <g>
  <title>Layer 1</title>
  <g stroke="null" id="svg_1">
   <g stroke="null" id="svg_2">
    <path stroke="null" fill="#444444" id="svg_3" d="m13.858103,5.057105c0.151537,-0.499891 0.227394,-1.018095 0.227394,-1.554809c0,-0.715704 -0.143253,-1.388232 -0.429375,-2.01752c-0.600311,0 -1.130602,0.120418 -1.590874,0.360964c-0.460036,0.24061 -0.984696,0.613859 -1.573716,1.119746c-0.740645,-0.197402 -1.526486,-0.296103 -2.356815,-0.296103c-0.909134,0 -1.776139,0.108036 -2.600984,0.323947c-0.60037,-0.518302 -1.130661,-0.899168 -1.590815,-1.142922c-0.460154,-0.243754 -0.993217,-0.365599 -1.599306,-0.365599c-0.286181,0.629288 -0.429257,1.301849 -0.429257,2.01752c0,0.542969 0.07571,1.067397 0.227247,1.57322c-0.763258,0.981046 -1.144813,2.202573 -1.144813,3.664806c0,1.283437 0.173884,2.304385 0.52186,3.063362c0.185235,0.400866 0.426456,0.755638 0.723899,1.064221c0.297325,0.308388 0.636839,0.558431 1.018453,0.749739c0.381673,0.191114 0.76597,0.350105 1.153215,0.476455c0.387216,0.126415 0.815057,0.219055 1.283643,0.277433c0.468556,0.058864 0.882394,0.097372 1.241513,0.11601c0.359119,0.018282 0.757479,0.027649 1.195315,0.027649c0.51617,0 0.984578,-0.014003 1.405639,-0.041587c0.420913,-0.027714 0.90197,-0.095719 1.443553,-0.203431c0.541495,-0.108036 1.018512,-0.254678 1.431053,-0.439698c0.412452,-0.18502 0.808159,-0.450394 1.186913,-0.795799c0.378754,-0.345632 0.674664,-0.755833 0.888025,-1.230959c0.342108,-0.765071 0.513339,-1.786245 0.513339,-3.063362c-0.000206,-1.468425 -0.381791,-2.696143 -1.145108,-3.683282zm-1.009727,6.732512c-0.179604,0.404237 -0.40691,0.721701 -0.681829,0.9533c-0.275037,0.231404 -0.617293,0.416424 -1.026885,0.555416c-0.409799,0.138765 -0.80241,0.229719 -1.178422,0.272765c-0.37613,0.04324 -0.794037,0.064763 -1.254309,0.064763l-1.41413,0c-0.460124,0 -0.878267,-0.021523 -1.254191,-0.064763c-0.375954,-0.043046 -0.768741,-0.134 -1.178422,-0.272765c-0.409533,-0.138992 -0.751789,-0.324012 -1.026826,-0.555416c-0.275037,-0.231631 -0.502284,-0.549063 -0.681858,-0.9533c-0.179545,-0.404237 -0.269347,-0.877645 -0.269347,-1.420517c0,-0.740566 0.193608,-1.369951 0.580853,-1.887961c0.387216,-0.518302 0.911847,-0.777356 1.573952,-0.777356c0.241398,0 0.788524,0.064731 1.641465,0.194323c0.398389,0.067843 0.838938,0.10178 1.321468,0.10178c0.482678,0 0.923168,-0.03384 1.321498,-0.10178c0.864322,-0.129624 1.41127,-0.194323 1.641495,-0.194323c0.662076,0 1.186707,0.259183 1.573922,0.777356c0.387245,0.518237 0.580735,1.147395 0.580735,1.887961c0,0.542969 -0.089802,1.016637 -0.26917,1.420517z"/>
    <path stroke="null" fill="#444444" id="svg_4" d="m5.916586,8.906867c-0.171172,-0.209881 -0.374509,-0.314806 -0.610246,-0.314806c-0.235796,0 -0.439163,0.105054 -0.610305,0.314806c-0.171054,0.209655 -0.291783,0.444171 -0.361891,0.70303c-0.070255,0.259378 -0.10528,0.512273 -0.10528,0.759204c0,0.246672 0.035113,0.499599 0.10528,0.758944c0.07002,0.259021 0.190689,0.493408 0.361891,0.70303c0.171231,0.209881 0.374509,0.314838 0.610305,0.314838c0.235738,0 0.439163,-0.105151 0.610246,-0.314838c0.171113,-0.209655 0.291783,-0.444009 0.361891,-0.70303c0.070167,-0.259345 0.10528,-0.512273 0.10528,-0.758944c0,-0.246704 -0.035025,-0.499826 -0.10528,-0.759204c-0.070138,-0.258762 -0.190689,-0.493181 -0.361891,-0.70303z"/>
    <path stroke="null" fill="#444444" id="svg_5" d="m11.303701,8.906867c-0.171113,-0.209881 -0.374509,-0.314806 -0.610187,-0.314806c-0.23559,0 -0.439104,0.105054 -0.610305,0.314806c-0.171113,0.209655 -0.291753,0.444171 -0.361773,0.70303c-0.070314,0.259378 -0.105427,0.512273 -0.105427,0.759204c0,0.246672 0.035113,0.499599 0.105427,0.758944c0.07002,0.259021 0.190689,0.493408 0.361773,0.70303c0.171231,0.209881 0.374715,0.314838 0.610305,0.314838c0.235679,0 0.439104,-0.105151 0.610187,-0.314838c0.171025,-0.209655 0.291753,-0.444009 0.361979,-0.70303c0.070138,-0.259345 0.105221,-0.512273 0.105221,-0.758944c0,-0.246704 -0.035083,-0.499826 -0.105221,-0.759204c-0.070196,-0.258762 -0.190954,-0.493181 -0.361979,-0.70303z"/>
   </g>
  </g>
  <g id="svg_6"/>
  <g id="svg_7"/>
  <g id="svg_8"/>
  <g id="svg_9"/>
  <g id="svg_10"/>
  <g id="svg_11"/>
  <g id="svg_12"/>
  <g id="svg_13"/>
  <g id="svg_14"/>
  <g id="svg_15"/>
  <g id="svg_16"/>
  <g id="svg_17"/>
  <g id="svg_18"/>
  <g id="svg_19"/>
  <g id="svg_20"/>
 </g>
</svg>